<?xml version="1.0" encoding="UTF-8"?>
<svg viewBox="0 0 107.95058 93.02095" xmlns="http://www.w3.org/2000/svg">
 <g transform="translate(-444.48 -144.21)">
  <path d="m510.21 208.67c15.431-1.4 26.665-5.6589 26.665-10.684 0-0.41459-0.274-0.79889-0.42293-1.2018 0.9113 0.22661 1.8295 0.46433 2.8284 0.46433 5.5658 0 10.071-3.7843 10.071-8.44s-4.5054-8.4127-10.071-8.4127c-0.68208 0-1.2855 0.21962-1.9297 0.32777 0.56328-1.8616 0.95161-3.7704 0.95161-5.7905 0-12.324-11.171-22.343-24.954-22.343h-1e-5c-9.7652 0-18.128 5.0897-22.231 12.4-1.6386-0.91482-3.4636-1.4749-5.3925-1.4749-5.8332-1e-5 -10.686 4.6921-12.186 11.062-2.5608-1.0122-5.5163-1.6388-8.6967-1.6388-9.5414 0-17.288 5.2272-17.288 11.663 0 5.8094 6.3454 10.588 14.591 11.472-0.36958 0.62705-0.66085 1.2537-0.66085 1.912 1e-5 4.244 8.0118 7.9414 19.797 9.8318" fill="none" stroke="#6798e9" stroke-linecap="round" stroke-linejoin="round" stroke-miterlimit=".5" stroke-width="6.154"/>
  <path d="m470.04 225.35c-8.2505 7.27 1.4368 13.469 5.1203 3.4862l2.8325-9.2602-7.9529 5.774z" fill="#6798e9" stroke="#6798e9" stroke-miterlimit="3.2" stroke-width="4"/>
  <path d="m499.09 226.55c-8.2505 7.27 1.4368 13.469 5.1203 3.4862l2.8325-9.2602-7.9529 5.774z" fill="#6798e9" stroke="#6798e9" stroke-miterlimit="3.2" stroke-width="4"/>
  <path d="m492.32 211.21c-8.2505 7.27 1.4368 13.469 5.1203 3.4862l2.8325-9.2602-7.9529 5.774z" fill="#6798e9" stroke="#6798e9" stroke-miterlimit="3.2" stroke-width="4"/>
  <path d="m510.21 208.67c15.431-1.4 26.665-5.6589 26.665-10.684 0-0.41459-0.274-0.79889-0.42293-1.2018 0.9113 0.22661 1.8295 0.46433 2.8284 0.46433 5.5658 0 10.071-3.7843 10.071-8.44s-4.5054-8.4127-10.071-8.4127c-0.68208 0-1.2855 0.21962-1.9297 0.32777 0.56328-1.8616 0.95161-3.7704 0.95161-5.7905 0-12.324-11.171-22.343-24.954-22.343h-1e-5c-9.7652 0-18.128 5.0897-22.231 12.4-1.6386-0.91482-3.4636-1.4749-5.3925-1.4749-5.8332-1e-5 -10.686 4.6921-12.186 11.062-2.5608-1.0122-5.5163-1.6388-8.6967-1.6388-9.5414 0-17.288 5.2272-17.288 11.663 0 5.8094 6.3454 10.588 14.591 11.472-0.36958 0.62705-0.66085 1.2537-0.66085 1.912 1e-5 4.244 8.0118 7.9414 19.797 9.8318" fill="none" stroke="#6798e9" stroke-linecap="round" stroke-linejoin="round" stroke-miterlimit=".5" stroke-width="6.154"/>
  <path d="m470.04 225.35c-8.2505 7.27 1.4368 13.469 5.1203 3.4862l2.8325-9.2602-7.9529 5.774z" fill="#6798e9" stroke="#6798e9" stroke-miterlimit="3.2" stroke-width="4"/>
  <path d="m499.09 226.55c-8.2505 7.27 1.4368 13.469 5.1203 3.4862l2.8325-9.2602-7.9529 5.774z" fill="#6798e9" stroke="#6798e9" stroke-miterlimit="3.2" stroke-width="4"/>
  <path d="m492.32 211.21c-8.2505 7.27 1.4368 13.469 5.1203 3.4862l2.8325-9.2602-7.9529 5.774z" fill="#6798e9" stroke="#6798e9" stroke-miterlimit="3.2" stroke-width="4"/>
  <path d="m511.42 157.95-20.042 12.709 19.795 4.366-18.296 13.644-7.3868-2.304 5.2392 13.151 20.821-5.7378-8.791-2.3984 23.872-19.597-21.821-3.5518 21.072-13.243-12.02-1.9883 13.091-8.4164-4.8093-0.12095-20.315 11.546 9.592 1.9411z" fill="#f5ff12" stroke="#f5ff12" stroke-linecap="round" stroke-miterlimit=".5" stroke-width=".5"/>
 </g>
</svg>
