<?xml version="1.0" encoding="UTF-8"?>
<svg viewBox="0 0 107.9665 89.303452" xmlns="http://www.w3.org/2000/svg">
 <g transform="translate(-169.92 -247.71)" stroke-linecap="round" stroke-miterlimit=".5">
  <path d="m248.3 304.86c8.5437-2.0539 14.009-5.192 14.009-8.698 0-0.4146-0.25732-0.78459-0.40625-1.1875 0.91129 0.22661 1.8136 0.46875 2.8125 0.46875 5.5658 0 10.094-3.7818 10.094-8.4375s-4.5279-8.4375-10.094-8.4375c-0.68208-1e-5 -1.2621 0.2356-1.9062 0.34375 0.56329-1.8616 0.9375-3.7611 0.9375-5.7812 0-12.324-11.155-22.344-24.938-22.344-9.7653 0-18.147 5.0642-22.25 12.375-1.6386-0.91484-3.4461-1.4688-5.375-1.4688-5.8332-1e-5 -10.687 4.6925-12.188 11.062-2.5608-1.0122-5.5383-1.625-8.7188-1.625-9.5414-1e-5 -17.281 5.2205-17.281 11.656-1e-5 5.8094 6.3477 10.585 14.594 11.469-0.36958 0.62705-0.65625 1.248-0.65625 1.9062-1e-5 2.8611 3.6397 5.4773 9.6219 7.4591m51.626 1.2673c0.03961-0.00945-7.8938 0.9777-7.8543 0.96821m-43.771-2.2355c0.04227 0.01401 4.7355 1.0246 4.778 1.0385" fill="none" stroke="#6798e9" stroke-linejoin="round" stroke-width="6.154"/>
  <path transform="matrix(.47721 0 0 .47721 141.71 126.65)" d="m138.99 349.22c0.65368-2.2394 16.597 3.4479 17.882 1.5008 1.2747-1.9315-10.41-14.182-8.5791-15.598 1.8451-1.4275 11.401 12.545 13.585 11.725 2.1666-0.81341-0.08554-17.592 2.2276-17.662 2.3318-0.07034 1.8497 16.85 4.0986 17.471 2.2309 0.61541 10.271-14.282 12.183-12.979 1.9278 1.3137-8.408 14.72-6.9533 16.543 1.4431 1.8092 16.704-5.5176 17.486-3.3392 0.78746 2.196-15.454 6.9663-15.349 9.2968 0.10409 2.3119 16.757 5.3549 16.109 7.5764-0.65367 2.2394-16.597-3.4479-17.882-1.5008-1.2747 1.9315 10.41 14.182 8.5791 15.598-1.8451 1.4275-11.401-12.545-13.585-11.725-2.1666 0.8134 0.08554 17.592-2.2276 17.662-2.3318 0.07034-1.8497-16.85-4.0986-17.471-2.2309-0.61541-10.271 14.282-12.183 12.979-1.9278-1.3137 8.408-14.72 6.9533-16.543-1.4431-1.8092-16.704 5.5176-17.486 3.3392-0.78746-2.196 15.454-6.9663 15.349-9.2968-0.10409-2.3119-16.757-5.3549-16.109-7.5764z" fill="#9e9e9e" stroke="#a6a6a6" stroke-width=".28064"/>
  <path transform="matrix(.47721 0 0 .47721 150.96 153.8)" d="m138.99 349.22c0.65368-2.2394 16.597 3.4479 17.882 1.5008 1.2747-1.9315-10.41-14.182-8.5791-15.598 1.8451-1.4275 11.401 12.545 13.585 11.725 2.1666-0.81341-0.08554-17.592 2.2276-17.662 2.3318-0.07034 1.8497 16.85 4.0986 17.471 2.2309 0.61541 10.271-14.282 12.183-12.979 1.9278 1.3137-8.408 14.72-6.9533 16.543 1.4431 1.8092 16.704-5.5176 17.486-3.3392 0.78746 2.196-15.454 6.9663-15.349 9.2968 0.10409 2.3119 16.757 5.3549 16.109 7.5764-0.65367 2.2394-16.597-3.4479-17.882-1.5008-1.2747 1.9315 10.41 14.182 8.5791 15.598-1.8451 1.4275-11.401-12.545-13.585-11.725-2.1666 0.8134 0.08554 17.592-2.2276 17.662-2.3318 0.07034-1.8497-16.85-4.0986-17.471-2.2309-0.61541-10.271 14.282-12.183 12.979-1.9278-1.3137 8.408-14.72 6.9533-16.543-1.4431-1.8092-16.704 5.5176-17.486 3.3392-0.78746-2.196 15.454-6.9663 15.349-9.2968-0.10409-2.3119-16.757-5.3549-16.109-7.5764z" fill="#9e9e9e" stroke="#a6a6a6" stroke-width=".28064"/>
  <path transform="matrix(.47721 0 0 .47721 118.97 153.8)" d="m138.99 349.22c0.65368-2.2394 16.597 3.4479 17.882 1.5008 1.2747-1.9315-10.41-14.182-8.5791-15.598 1.8451-1.4275 11.401 12.545 13.585 11.725 2.1666-0.81341-0.08554-17.592 2.2276-17.662 2.3318-0.07034 1.8497 16.85 4.0986 17.471 2.2309 0.61541 10.271-14.282 12.183-12.979 1.9278 1.3137-8.408 14.72-6.9533 16.543 1.4431 1.8092 16.704-5.5176 17.486-3.3392 0.78746 2.196-15.454 6.9663-15.349 9.2968 0.10409 2.3119 16.757 5.3549 16.109 7.5764-0.65367 2.2394-16.597-3.4479-17.882-1.5008-1.2747 1.9315 10.41 14.182 8.5791 15.598-1.8451 1.4275-11.401-12.545-13.585-11.725-2.1666 0.8134 0.08554 17.592-2.2276 17.662-2.3318 0.07034-1.8497-16.85-4.0986-17.471-2.2309-0.61541-10.271 14.282-12.183 12.979-1.9278-1.3137 8.408-14.72 6.9533-16.543-1.4431-1.8092-16.704 5.5176-17.486 3.3392-0.78746-2.196 15.454-6.9663 15.349-9.2968-0.10409-2.3119-16.757-5.3549-16.109-7.5764z" fill="#9e9e9e" stroke="#a6a6a6" stroke-width=".28064"/>
 </g>
</svg>
