<?xml version="1.0" encoding="UTF-8"?>
<svg viewBox="0 0 107.9665 83.890495" xmlns="http://www.w3.org/2000/svg">
 <g transform="translate(-304.05 -249.59)" stroke-linecap="round" stroke-miterlimit=".5">
  <path d="m382.43 306.74c8.5437-2.0539 14.009-5.192 14.009-8.698 0-0.4146-0.25732-0.78459-0.40625-1.1875 0.91129 0.22661 1.8136 0.46875 2.8125 0.46875 5.5658 0 10.094-3.7818 10.094-8.4375s-4.5279-8.4375-10.094-8.4375c-0.68208-1e-5 -1.2621 0.2356-1.9062 0.34375 0.56329-1.8616 0.9375-3.7611 0.9375-5.7812 0-12.324-11.155-22.344-24.938-22.344-9.7653 0-18.147 5.0642-22.25 12.375-1.6386-0.91484-3.4461-1.4688-5.375-1.4688-5.8332-1e-5 -10.687 4.6925-12.188 11.062-2.5608-1.0122-5.5383-1.625-8.7188-1.625-9.5414-1e-5 -17.281 5.2205-17.281 11.656-1e-5 5.8094 6.3477 10.585 14.594 11.469-0.36958 0.62705-0.65625 1.248-0.65625 1.9062-1e-5 2.8611 3.6397 5.4773 9.6219 7.4591m51.626 1.2673c0.03961-0.00945-10.153 0.9777-10.114 0.96821m-41.512-2.2355c0.04227 0.01401 7.5547 1.7025 8.5644 1.6447" fill="none" stroke="#6798e9" stroke-linejoin="round" stroke-width="6.154"/>
  <path transform="matrix(.77419 0 0 .77419 103.25 23.035)" d="m336.74 363.88a10.318 10.318 0 1 1 -20.636 0 10.318 10.318 0 1 1 20.636 0z" fill="#9e9e9e" stroke="#a6a6a6" stroke-width=".17299"/>
  <path transform="matrix(.77419 0 0 .77419 88.247 43.709)" d="m336.74 363.88a10.318 10.318 0 1 1 -20.636 0 10.318 10.318 0 1 1 20.636 0z" fill="#9e9e9e" stroke="#a6a6a6" stroke-width=".17299"/>
 </g>
</svg>
