<?xml version="1.0" encoding="UTF-8"?>
<svg viewBox="0 0 125.82217 68.562172" xmlns="http://www.w3.org/2000/svg">
 <g transform="translate(-566.41 -28.293)">
  <path d="m679.99 63.08c-1.2956 0.01313 0.51411-0.47803-2.7884-0.40815-1.4953 0.03164-3.7548 0.63454-5.6532 1.2663-1.9473 0.64809-5.301 1.9282-7.5453 2.4948-4.5976 1.1608-2.0678 0.61023-8.9322 1.6953-7.1152 1.1247-8.7189 1.2703-10.303 1.1982-1.5162-0.06898-5.2672 0.39453-8.7929-0.0778-3.1598-0.42332-4.3712-0.10644-5.1017 0.39862s-1.1588 1.4204-1.1168 2.387 0.54742 1.8302 1.3181 2.2521c0.71853 0.43392 1.815 1.1077 3.6384 1.7199 4.6468 1.5602 11.484 2.6336 19.072 2.6336s14.425-1.0734 19.072-2.6336c1.9404-0.6515 3.1664-1.3744 3.9237-1.8543 0.64863-0.40456 1.0896-1.1321 1.189-1.9618 0.21318-1.8332 1.3234-3.3453 2.8774-3.9236 1.1791-0.35977 1.9156-1.6833 1.6916-3.0401s-1.3272-2.2278-2.5477-2.1465z" fill="#fff"/>
  <path d="m629.77 31.37c-8.9464 0-16.608 4.6629-20.367 11.361-1.5012-0.83811-3.1731-1.3513-4.9403-1.3513-5.344 0-9.7896 4.2987-11.164 10.134-2.346-0.9273-5.0537-1.5014-7.9674-1.5014-8.7413 0-15.838 4.7889-15.838 10.685 0 5.3222 5.8133 9.7004 13.368 10.51-0.33859 0.57448-0.60543 1.1486-0.60543 1.7516 0 5.6452 15.473 10.235 34.534 10.235s34.534-4.5894 34.534-10.235c0-0.37982-0.25102-0.7319-0.38746-1.101 0.83487 0.20762 1.6761 0.42539 2.5912 0.42539 5.0991 0 9.2267-3.467 9.2267-7.7322s-4.1276-7.7072-9.2267-7.7072c-0.62489 0-1.1777 0.2012-1.7679 0.30028 0.51606-1.7055 0.87181-3.4542 0.87181-5.305 0-11.29-10.235-20.469-22.861-20.469z" fill="#fff" stroke="#6798e9" stroke-linecap="round" stroke-linejoin="round" stroke-miterlimit=".5" stroke-width="6.154"/>
  <path d="m658.91 33.007c-8.2055 0-15.232 4.6726-18.68 11.384-1.3769-0.83986-2.9103-1.3541-4.5312-1.3541-4.9015 0-8.9789 4.3077-10.24 10.156-2.1518-0.92925-4.6352-1.5046-7.3076-1.5046-8.0174 0-14.526 4.7989-14.526 10.707 0 5.3334 5.3318 9.7208 12.261 10.532-0.31054 0.57569-0.55528 1.151-0.55528 1.7553 0 5.657 14.191 10.256 31.674 10.256s31.674-4.599 31.674-10.256c0-0.38062-0.23026-0.73345-0.3554-1.1033 0.76575 0.20804 1.5373 0.42628 2.3766 0.42628 4.6768 0 8.4626-3.4742 8.4626-7.7484s-3.7858-7.7234-8.4626-7.7234c-0.57313 0-1.0801 0.20162-1.6214 0.30092 0.47331-1.709 0.79962-3.4614 0.79962-5.3161 0-11.314-9.3871-20.512-20.968-20.512z" fill="#6798e9" stroke="#6798e9" stroke-linecap="round" stroke-linejoin="round" stroke-miterlimit=".5" stroke-width="6.154"/>
  <path d="m625.66 67.907c-4.5698 0-8.4832 2.3278-10.403 5.6715-0.76682-0.4184-1.6208-0.67458-2.5235-0.67458-2.7297 0-5.0005 2.146-5.7026 5.0594-1.1983-0.46293-2.5814-0.74954-4.0697-0.74954-4.465 0-8.09 2.3907-8.09 5.3342 0 2.657 2.9694 4.8427 6.8282 5.2468-0.17295 0.2868-0.30926 0.5734-0.30926 0.87446 0 2.8182 7.9034 5.1093 17.64 5.1093s17.64-2.2911 17.64-5.1093c0-0.18961-0.12823-0.36538-0.19792-0.54966 0.42645 0.10366 0.85614 0.21237 1.3236 0.21237 2.6046 0 4.7129-1.7308 4.7129-3.8601s-2.1084-3.8476-4.7129-3.8476c-0.3192 0-0.60155 0.10044-0.90301 0.1499 0.26359-0.85141 0.44532-1.7244 0.44532-2.6484 0-5.6364-5.2278-10.219-11.677-10.219z" fill="#386195" stroke="#386195" stroke-linecap="round" stroke-linejoin="round" stroke-miterlimit=".5" stroke-width="6.154"/>
 </g>
</svg>
