<?xml version="1.0" encoding="UTF-8"?>
<svg viewBox="0 0 114.94446 78.3265" xmlns="http://www.w3.org/2000/svg">
 <path transform="matrix(.64604 0 0 .64604 -139.8 -21.206)" d="m310.66 132.06c-1.827 2.0443-22.21-18.383-24.893-17.378s-6.7378 33.642-9.5753 34.012-7.7155-33.089-10.481-33.888-18.779 19.342-21.18 17.829 5.6997-26.098 4.3649-28.671-31.863-3.7803-32.492-6.6501 27.669-10.399 27.902-13.242-18.998-18.902-17.897-21.394 26.855 8.1774 28.594 5.9916-3.3918-29.683-0.75169-30.507 18.503 18.485 21.322 18.393 11.303-24.288 14.183-23.722 1.4433 25.668 3.6723 27.344 24.272-6.2829 25.907-4.0049-12.639 24.445-11.78 27.073 27.012 5.1355 26.655 7.8525-32.699 3.8756-34.047 6.5072 12.324 32.411 10.497 34.455z" fill="#f5ff12"/>
 <path transform="matrix(.6331 0 0 .56669 -60.199 -9.9714)" d="m194.52 77.284a39.901 37.407 0 1 1 -79.802 0 39.901 37.407 0 1 1 79.802 0z" fill="#fff" stroke="#f5ff12" stroke-miterlimit=".5" stroke-width="10.274"/>
 <path transform="translate(-34.664 -126.28)" d="m110.53 144.97c-9.7653 0-18.147 5.0642-22.25 12.375-1.6386-0.91483-3.4461-1.4688-5.375-1.4688-5.8332 0-10.687 4.6925-12.188 11.062-2.5608-1.0122-5.5383-1.625-8.7188-1.625-9.5414 0-17.281 5.2205-17.281 11.656 0 5.8094 6.3477 10.585 14.594 11.469-0.36958 0.62706-0.65625 1.248-0.65625 1.9062 0 6.1619 16.882 11.188 37.688 11.188s37.688-5.0256 37.688-11.188c0-0.41459-0.25732-0.78459-0.40625-1.1875 0.91129 0.22662 1.8136 0.46875 2.8125 0.46875 5.5658 1e-5 10.094-3.7818 10.094-8.4375s-4.5279-8.4375-10.094-8.4375c-0.68208 0-1.2621 0.2356-1.9062 0.34375 0.56329-1.8616 0.9375-3.7611 0.9375-5.7812 0-12.324-11.155-22.344-24.938-22.344z" fill="#fff" stroke="#6798e9" stroke-linecap="round" stroke-linejoin="round" stroke-miterlimit=".5" stroke-width="6.154"/>
</svg>
