<?xml version="1.0" encoding="UTF-8"?>
<svg viewBox="0 0 107.95058 87.433716" xmlns="http://www.w3.org/2000/svg">
 <g transform="translate(-40.31 -17.217)">
  <path d="m109.18 20.294c-9.7653 0-18.128 5.0897-22.231 12.4-1.6386-0.91482-3.4636-1.4749-5.3925-1.4749-5.8332 0-10.686 4.6921-12.186 11.062-2.5608-1.0122-5.5163-1.6388-8.6967-1.6388-9.5414 0-17.288 5.2272-17.288 11.663 0 5.8094 6.3454 10.588 14.591 11.472-0.36958 0.62706-0.66085 1.2537-0.66085 1.912 0 6.1619 16.889 11.171 37.695 11.171s37.695-5.0094 37.695-11.171c0-0.41459-0.274-0.79889-0.42293-1.2018 0.91129 0.22662 1.8295 0.46433 2.8284 0.46433 5.5658 0 10.071-3.7843 10.071-8.44s-4.5054-8.4127-10.071-8.4127c-0.68208 0-1.2855 0.21962-1.9297 0.32777 0.56329-1.8616 0.95161-3.7704 0.95161-5.7905 0-12.324-11.171-22.343-24.954-22.343z" fill="#fff" stroke="#6798e9" stroke-linecap="round" stroke-linejoin="round" stroke-miterlimit=".5" stroke-width="6.154"/>
  <path d="m96.661 89.185c1.7085-1.551 3.6793-3.4582 6.7973-3.2662 3.2709-0.00248 4.8404 0.34241 8.0363 1.3375s6.4477 2.6531 8.8879 2.0575c2.5425-0.62053 5.3465-2.9525 6.4681-4.3831 1.6418 0.50043-0.44774 2.5924-0.93692 3.4734-1.53 2.2949-2.9251 3.8497-5.1587 4.5013-2.4396 0.82962-5.333 0.47733-7.756-0.03136-2.7375-0.64973-5.4044-1.7803-8.1282-2.5113-3.0208-0.64463-7.3768 0.88147-8.5517 1.4337-1.2205 0.57365-3.6183 3.1662-3.1666 1.0785 1.1626-1.0977 1.7769-2.1181 3.5086-3.6902z" fill="#9e9e9e" stroke="#9e9e9e"/>
  <path d="m61.275 88.021c1.7084-1.551 3.6793-3.4582 6.7973-3.2662 3.2709-0.0025 4.8404 0.3424 8.0363 1.3375s6.4477 2.6531 8.8879 2.0576c2.5425-0.62053 5.3465-2.9525 6.4681-4.3831 1.6418 0.50043-0.44774 2.5924-0.93692 3.4734-1.53 2.2949-2.9251 3.8497-5.1587 4.5013-2.4396 0.82962-5.333 0.47732-7.756-0.03135-2.7375-0.64974-5.4044-1.7803-8.1282-2.5113-3.0208-0.64463-7.3768 0.88146-8.5517 1.4337-1.2205 0.57366-3.6183 3.1662-3.1666 1.0785 1.1626-1.0977 1.7769-2.1181 3.5086-3.6902z" fill="#9e9e9e" stroke="#9e9e9e"/>
  <path d="m76.137 99.66c1.7085-1.551 3.6793-3.4582 6.7973-3.2662 3.2709-0.00248 4.8404 0.34242 8.0363 1.3375s6.4477 2.6531 8.8879 2.0575c2.5425-0.62053 5.3465-2.9525 6.4681-4.3831 1.6418 0.50044-0.44773 2.5924-0.93692 3.4734-1.53 2.2949-2.9251 3.8497-5.1587 4.5013-2.4396 0.82962-5.333 0.47731-7.756-0.03136-2.7375-0.64973-5.4044-1.7803-8.1282-2.5113-3.0208-0.64463-7.3768 0.88147-8.5517 1.4337-1.2205 0.57365-3.6183 3.1662-3.1666 1.0785 1.1626-1.0977 1.7769-2.1181 3.5086-3.6902z" fill="#9e9e9e" stroke="#9e9e9e"/>
 </g>
</svg>
