<?xml version="1.0" encoding="UTF-8"?>
<svg viewBox="0 0 125.82218 95.332306" xmlns="http://www.w3.org/2000/svg">
 <g transform="translate(-566.41 -146.84)">
  <path d="m679.99 181.63c-1.2956 0.01313 0.51411-0.47804-2.7884-0.40816-1.4953 0.03164-3.7548 0.63454-5.6532 1.2663-1.9473 0.6481-5.301 1.9282-7.5453 2.4948-4.5976 1.1608-2.0678 0.61022-8.9322 1.6953-7.1152 1.1247-8.7189 1.2703-10.303 1.1982-1.5162-0.06898-5.2672 0.39453-8.7929-0.0778-3.1598-0.42332-4.3712-0.10644-5.1017 0.39862s-1.1588 1.4204-1.1168 2.387 0.54742 1.8302 1.3181 2.2521c0.71853 0.43392 1.815 1.1077 3.6384 1.7199 4.6468 1.5602 11.484 2.6336 19.072 2.6336s14.425-1.0734 19.072-2.6336c1.9404-0.6515 3.1664-1.3744 3.9237-1.8543 0.64863-0.40456 1.0896-1.1321 1.189-1.9618 0.21318-1.8332 1.3234-3.3453 2.8774-3.9236 1.1791-0.35977 1.9156-1.6833 1.6916-3.0401s-1.3272-2.2278-2.5477-2.1465z" fill="#fff"/>
  <g transform="matrix(.91614 0 0 .91614 324.66 36.882)" stroke-linecap="round" stroke-linejoin="round" stroke-miterlimit=".5">
   <path d="m333.03 123.39c-9.7653 0-18.128 5.0897-22.231 12.4-1.6386-0.91482-3.4636-1.4749-5.3925-1.4749-5.8332 0-10.686 4.6921-12.186 11.062-2.5608-1.0122-5.5163-1.6388-8.6967-1.6388-9.5414 0-17.288 5.2272-17.288 11.663 0 5.8094 6.3454 10.588 14.591 11.472-0.36958 0.62706-0.66085 1.2537-0.66085 1.912 0 6.1619 16.889 11.171 37.695 11.171s37.695-5.0094 37.695-11.171c0-0.41459-0.274-0.79889-0.42293-1.2018 0.91129 0.22662 1.8295 0.46433 2.8284 0.46433 5.5658 0 10.071-3.7843 10.071-8.44s-4.5054-8.4127-10.071-8.4127c-0.68208 0-1.2855 0.21962-1.9297 0.32777 0.56329-1.8616 0.95161-3.7704 0.95161-5.7905 0-12.324-11.171-22.343-24.954-22.343z" fill="#fff" stroke="#6798e9" stroke-width="6.7173"/>
   <path d="m364.84 125.17c-8.9566 0-16.627 5.1003-20.39 12.426-1.5029-0.91673-3.1767-1.478-4.9459-1.478-5.3501 0-9.8008 4.702-11.177 11.085-2.3487-1.0143-5.0594-1.6423-7.9765-1.6423-8.7513 0-15.856 5.2382-15.856 11.687 0 5.8216 5.8199 10.611 13.383 11.496-0.33896 0.62838-0.60611 1.2564-0.60611 1.916 0 6.1748 15.49 11.195 34.573 11.195s34.573-5.02 34.573-11.195c0-0.41546-0.25133-0.80058-0.38793-1.2043 0.83584 0.22708 1.678 0.4653 2.5942 0.4653 5.1049 0 9.2372-3.7922 9.2372-8.4577s-4.1323-8.4303-9.2372-8.4303c-0.62559 0-1.179 0.22007-1.7699 0.32846 0.51663-1.8655 0.87281-3.7783 0.87281-5.8027 0-12.35-10.246-22.39-22.887-22.39z" fill="#6798e9" stroke="#6798e9" stroke-width="6.7173"/>
   <path d="m328.55 163.27c-4.988 0-9.2597 2.5409-11.355 6.1906-0.837-0.4567-1.7692-0.73632-2.7544-0.73632-2.9796 0-5.4582 2.3424-6.2245 5.5225-1.308-0.5053-2.8177-0.81815-4.4422-0.81815-4.8737 0-8.8304 2.6096-8.8304 5.8224 0 2.9002 3.2412 5.286 7.4532 5.727-0.18878 0.31305-0.33756 0.62589-0.33756 0.9545 0 3.0762 8.6268 5.577 19.254 5.577s19.254-2.5008 19.254-5.577c0-0.20697-0.13997-0.39883-0.21604-0.59997 0.46549 0.11315 0.93451 0.23181 1.4447 0.23181 2.843 0 5.1443-1.8892 5.1443-4.2134s-2.3014-4.1998-5.1443-4.1998c-0.34841 0-0.65661 0.10963-0.98566 0.16362 0.28772-0.92934 0.48608-1.8822 0.48608-2.8908 0-6.1524-5.7063-11.154-12.746-11.154z" fill="#386195" stroke="#386195" stroke-width="6.7173"/>
  </g>
  <path d="m633.67 165.36-20.042 12.709 19.795 4.366-18.296 13.644-7.3868-2.304 5.2392 13.151 20.821-5.7378-8.791-2.3984 23.872-19.597-21.821-3.5518 21.072-13.243-12.02-1.9883 13.091-8.4164-4.8093-0.12095-20.315 11.546 9.592 1.9411z" fill="#f5ff12" stroke="#f5ff12" stroke-linecap="round" stroke-miterlimit=".5" stroke-width=".5"/>
  <path d="m596 230.29c-8.2505 7.27 1.4368 13.469 5.1203 3.4862l2.8325-9.2602-7.9529 5.774z" fill="#6798e9" stroke="#6798e9" stroke-miterlimit="3.2" stroke-width="4"/>
  <path d="m625.05 231.49c-8.2505 7.27 1.4368 13.469 5.1203 3.4862l2.8325-9.2602-7.9529 5.774z" fill="#6798e9" stroke="#6798e9" stroke-miterlimit="3.2" stroke-width="4"/>
  <path d="m618.28 216.14c-8.2505 7.27 1.4368 13.469 5.1203 3.4862l2.8325-9.2602-7.9529 5.774z" fill="#6798e9" stroke="#6798e9" stroke-miterlimit="3.2" stroke-width="4"/>
  <path d="m596 230.29c-8.2505 7.27 1.4368 13.469 5.1203 3.4862l2.8325-9.2602-7.9529 5.774z" fill="#6798e9" stroke="#6798e9" stroke-miterlimit="3.2" stroke-width="4"/>
  <path d="m625.05 231.49c-8.2505 7.27 1.4368 13.469 5.1203 3.4862l2.8325-9.2602-7.9529 5.774z" fill="#6798e9" stroke="#6798e9" stroke-miterlimit="3.2" stroke-width="4"/>
  <path d="m618.28 216.14c-8.2505 7.27 1.4368 13.469 5.1203 3.4862l2.8325-9.2602-7.9529 5.774z" fill="#6798e9" stroke="#6798e9" stroke-miterlimit="3.2" stroke-width="4"/>
 </g>
</svg>
