<?xml version="1.0" encoding="UTF-8"?>
<svg viewBox="0 0 116.59006 90.193642" xmlns="http://www.w3.org/2000/svg">
 <g transform="translate(-176.1 -22.607)">
  <path transform="matrix(.77838 0 0 .77838 7.6556 -2.9429)" d="m310.66 132.06c-1.827 2.0443-22.21-18.383-24.893-17.378s-6.7378 33.642-9.5753 34.012-7.7155-33.089-10.481-33.888-18.779 19.342-21.18 17.829 5.6997-26.098 4.3649-28.671-31.863-3.7803-32.492-6.6501 27.669-10.399 27.902-13.242-18.998-18.902-17.897-21.394 26.855 8.1774 28.594 5.9916-3.3918-29.683-0.75169-30.507 18.503 18.485 21.322 18.393 11.303-24.288 14.183-23.722 1.4433 25.668 3.6723 27.344 24.272-6.2829 25.907-4.0049-12.639 24.445-11.78 27.073 27.012 5.1355 26.655 7.8525-32.699 3.8756-34.047 6.5072 12.324 32.411 10.497 34.455z" fill="#f5ff12"/>
  <path transform="matrix(.7628 0 0 .68278 103.56 10.593)" d="m194.52 77.284a39.901 37.407 0 1 1 -79.802 0 39.901 37.407 0 1 1 79.802 0z" fill="#fff" stroke="#f5ff12" stroke-miterlimit=".5" stroke-width="8.527"/>
  <path d="m268.24 54.99c-5.7966 0-10.761 3.0212-13.196 7.3608-0.97268-0.54303-2.0559-0.87552-3.2009-0.87552-3.4625 0-6.3429 2.7852-7.2335 6.5664-1.52-0.60082-3.2744-0.9728-5.1623-0.9728-5.6637 0-10.262 3.1028-10.262 6.9231 0 3.4484 3.7666 6.2851 8.6614 6.8096-0.21938 0.37222-0.39227 0.7442-0.39227 1.1349 0 3.6577 10.025 6.6312 22.375 6.6312s22.375-2.9736 22.375-6.6312c0-0.2461-0.16266-0.47422-0.25106-0.71338 0.54094 0.13452 1.086 0.27563 1.6789 0.27563 3.3038 0 5.9782-2.2463 5.9782-5.0099s-2.6744-4.9937-5.9782-4.9937c-0.40487 0-0.76304 0.13036-1.1454 0.19456 0.33436-1.105 0.56487-2.238 0.56487-3.4372 0-7.3153-6.6313-13.262-14.812-13.262z" fill="#fff" stroke="#6778e9" stroke-linecap="round" stroke-linejoin="round" stroke-miterlimit=".5" stroke-width="6.154"/>
 </g>
</svg>
