<?xml version="1.0" encoding="UTF-8"?>
<svg viewBox="0 0 101.65961 99.979332" xmlns="http://www.w3.org/2000/svg">
 <path transform="matrix(.86284 0 0 .86284 -186.72 -28.322)" d="m310.66 132.06c-1.827 2.0443-22.21-18.383-24.893-17.378s-6.7378 33.642-9.5753 34.012-7.7155-33.089-10.481-33.888-18.779 19.342-21.18 17.829 5.6997-26.098 4.3649-28.671-31.863-3.7803-32.492-6.6501 27.669-10.399 27.902-13.242-18.998-18.902-17.897-21.394 26.855 8.1774 28.594 5.9916-3.3918-29.683-0.75169-30.507 18.503 18.485 21.322 18.393 11.303-24.288 14.183-23.722 1.4433 25.668 3.6723 27.344 24.272-6.2829 25.907-4.0049-12.639 24.445-11.78 27.073 27.012 5.1355 26.655 7.8525-32.699 3.8756-34.047 6.5072 12.324 32.411 10.497 34.455z" fill="#f5ff12"/>
 <path transform="matrix(.84556 0 0 .75685 -80.401 -13.318)" d="m194.52 77.284a39.901 37.407 0 1 1 -79.802 0 39.901 37.407 0 1 1 79.802 0z" fill="#fff" stroke="#f5ff12" stroke-miterlimit=".5" stroke-width="7.6924"/>
</svg>
